<?xml version="1.0" encoding="utf-8"?>
<!-- Generator: Adobe Illustrator 24.1.2, SVG Export Plug-In . SVG Version: 6.00 Build 0)  -->
<svg version="1.1" id="Layer_1" xmlns="http://www.w3.org/2000/svg" xmlns:xlink="http://www.w3.org/1999/xlink" x="0px" y="0px"
	 viewBox="0 0 146.2 164.3" style="enable-background:new 0 0 146.2 164.3;" xml:space="preserve">
<style type="text/css">
	.st0{fill:#FFFFFF;}
	.st1{enable-background:new    ;}
</style>
<g>
	<path class="st0" d="M125.7,21.8h-7c0.1-0.4,0.1-0.8,0.1-1.2v-5.9c0-3.2-2.6-5.8-5.8-5.8l0,0c-3.2,0-5.8,2.6-5.8,5.8v5.9
		c0,0.4,0,0.8,0.1,1.2H38.8c0.1-0.4,0.1-0.8,0.1-1.2v-5.9c0-3.2-2.6-5.8-5.8-5.8l0,0c-3.2,0-5.8,2.6-5.8,5.8v5.9
		c0,0.4,0,0.8,0.1,1.2h-7c-6,0-10.9,4.9-10.9,10.9v111.2c0,6,4.9,10.9,10.9,10.9h105.2c6,0,10.9-4.9,10.9-10.9V32.7
		C136.6,26.7,131.7,21.8,125.7,21.8z M126.5,143.1H19.7v-100h106.8V143.1z"/>
	<g class="st1">
		<path class="st0" d="M49.3,57.3h28.5c3.7,0,6.9,0.8,9.8,2.4c2.9,1.6,5.1,3.8,6.7,6.7c1.6,2.9,2.4,6.1,2.4,9.7c0,2.2-0.6,4.6-1.7,7
			c-1.1,2.4-2.6,4.5-4.4,6.2c0.2,0.1,0.4,0.3,0.7,0.4c0.3,0.2,0.6,0.4,0.9,0.6c2.6,1.7,4.7,4.1,6.4,7.1c1.6,3,2.5,6.1,2.5,9.2
			c0,3.8-0.8,7.3-2.4,10.3c-1.6,3-3.9,5.4-6.7,7.1s-6.2,2.6-9.8,2.6H49.3V57.3z M77.5,86.2c2.5-0.1,4.6-1,6.1-2.7
			c1.5-1.7,2.3-3.9,2.3-6.6c0-3-0.9-5.4-2.6-7.2c-1.7-1.8-3.9-2.7-6.6-2.7H60.5v19.2H77.5z M80.6,116.9c2.9,0,5.1-0.9,6.9-2.7
			c1.7-1.8,2.6-4.3,2.6-7.4c0-3.3-0.9-5.9-2.6-8c-1.7-2-4-3-6.9-3H60.5v21.1H80.6z"/>
	</g>
</g>
</svg>
