<?xml version="1.0" encoding="utf-8"?>
<!-- Generator: Adobe Illustrator 24.0.3, SVG Export Plug-In . SVG Version: 6.00 Build 0)  -->
<svg version="1.1" id="Layer_1" xmlns="http://www.w3.org/2000/svg" xmlns:xlink="http://www.w3.org/1999/xlink" x="0px" y="0px"
	 viewBox="0 0 146.21 164.3" style="enable-background:new 0 0 146.21 164.3;" xml:space="preserve">
<style type="text/css">
	.st0{font-family:'SUIT-Bold';}
	.st1{font-size:92.9862px;}
</style>
<g>
	<path d="M125.7,21.79h-7.02c0.08-0.37,0.12-0.76,0.12-1.16v-5.89c0-3.18-2.57-5.75-5.75-5.75l0,0c-3.18,0-5.75,2.57-5.75,5.75v5.89
		c0,0.4,0.04,0.78,0.12,1.16H38.8c0.08-0.37,0.12-0.76,0.12-1.16v-5.89c0-3.18-2.57-5.75-5.75-5.75h0c-3.18,0-5.75,2.57-5.75,5.75
		v5.89c0,0.4,0.04,0.78,0.12,1.16h-7.02c-6.01,0-10.89,4.88-10.89,10.89v111.19c0,6.01,4.88,10.89,10.89,10.89H125.7
		c6.01,0,10.89-4.88,10.89-10.89V32.68C136.6,26.67,131.72,21.79,125.7,21.79z M126.51,143.09H19.71V43.14h106.8V143.09z"/>
	<text transform="matrix(1 0 0 1 33.4315 125.5044)" class="st0 st1">A</text>
</g>
</svg>
