<?xml version="1.0" encoding="utf-8"?>
<!-- Generator: Adobe Illustrator 24.1.2, SVG Export Plug-In . SVG Version: 6.00 Build 0)  -->
<svg version="1.1" id="Layer_1" xmlns="http://www.w3.org/2000/svg" xmlns:xlink="http://www.w3.org/1999/xlink" x="0px" y="0px"
	 viewBox="0 0 146.2 164.3" style="enable-background:new 0 0 146.2 164.3;" xml:space="preserve">
<style type="text/css">
	.st0{fill:#FFFFFF;}
	.st1{enable-background:new    ;}
</style>
<g>
	<path class="st0" d="M125.7,21.8h-7c0.1-0.4,0.1-0.8,0.1-1.2v-5.9c0-3.2-2.6-5.8-5.8-5.8l0,0c-3.2,0-5.8,2.6-5.8,5.8v5.9
		c0,0.4,0,0.8,0.1,1.2H38.8c0.1-0.4,0.1-0.8,0.1-1.2v-5.9c0-3.2-2.6-5.8-5.8-5.8l0,0c-3.2,0-5.8,2.6-5.8,5.8v5.9
		c0,0.4,0,0.8,0.1,1.2h-7c-6,0-10.9,4.9-10.9,10.9v111.2c0,6,4.9,10.9,10.9,10.9h105.2c6,0,10.9-4.9,10.9-10.9V32.7
		C136.6,26.7,131.7,21.8,125.7,21.8z M126.5,143.1H19.7v-100h106.8V143.1z"/>
	<g class="st1">
		<path class="st0" d="M108.4,126.5H96.3l-7.5-18.3H58l-7.6,18.3H38.3l28.8-69.2H80L108.4,126.5z M84.9,98.5L73.5,70.9L62,98.5H84.9
			z"/>
	</g>
</g>
</svg>
